<?xml version="1.0" encoding="utf-8"?>
<!-- Generator: Adobe Illustrator 16.0.0, SVG Export Plug-In . SVG Version: 6.00 Build 0)  -->
<!DOCTYPE svg PUBLIC "-//W3C//DTD SVG 1.1//EN" "http://www.w3.org/Graphics/SVG/1.1/DTD/svg11.dtd">
<svg version="1.1" id="Layer_1" xmlns="http://www.w3.org/2000/svg" xmlns:xlink="http://www.w3.org/1999/xlink" x="0px" y="0px"
	 width="357px" height="223px" viewBox="0 0 357 223" enable-background="new 0 0 357 223" xml:space="preserve">
<g>
	<g>
		<path fill="#FFFFFF" d="M8.963,120.182h15.764l14.735,39.532l14.395-39.532h15.208v3.002H67.78c-1.549,0-2.6,0.138-3.128,0.4
			c-0.541,0.269-0.965,0.729-1.276,1.383c-0.308,0.662-0.462,1.753-0.462,3.262v32.919c0,2.078,0.119,3.422,0.373,4.038
			c0.253,0.626,0.667,1.096,1.255,1.414c0.583,0.324,1.659,0.485,3.238,0.485h1.285v3.008h-19.07v-3.008h1.358
			c1.219,0,2.108-0.095,2.669-0.295c0.557-0.186,1.025-0.495,1.394-0.944c0.371-0.435,0.578-0.896,0.627-1.372
			c0.118-0.983,0.179-1.737,0.179-2.291v-36.737l-16.295,44.647h-3.579l-16.406-44.007v35.345c0,1.8,0.16,3.02,0.47,3.655
			c0.31,0.636,0.79,1.124,1.448,1.477c0.657,0.349,1.833,0.522,3.525,0.522h1.14v3.008H8.963v-3.008h1.001
			c1.694,0,2.904-0.181,3.626-0.537c0.733-0.353,1.25-0.864,1.563-1.518c0.308-0.663,0.469-1.956,0.469-3.883v-32.595
			c0-1.824-0.136-3.031-0.396-3.619c-0.266-0.588-0.699-1.024-1.31-1.321c-0.606-0.281-1.687-0.429-3.238-0.429H8.963V120.182z"/>
		<path fill="#FFFFFF" d="M75.314,120.182h19.101v3.002h-1.466c-1.382,0-2.383,0.193-3.008,0.579
			c-0.618,0.386-1.072,0.935-1.351,1.636c-0.29,0.706-0.438,2.087-0.438,4.118v32.162c0,1.626,0.158,2.775,0.469,3.454
			c0.31,0.679,0.744,1.175,1.301,1.486c0.564,0.31,1.574,0.466,3.027,0.466h1.466v3.008H75.314v-3.008h1.57
			c1.405,0,2.409-0.161,2.989-0.485c0.585-0.318,1.011-0.788,1.269-1.391c0.263-0.611,0.395-1.785,0.395-3.53V128.77
			c0-1.848-0.131-3.094-0.395-3.729c-0.258-0.634-0.684-1.104-1.269-1.4c-0.581-0.3-1.584-0.457-2.989-0.457h-1.57V120.182z"/>
		<path fill="#FFFFFF" d="M135.734,120.182h2.576l4.541,16.635l-3.326,0.931c-1.791-3.842-3.151-6.413-4.078-7.728
			c-1.53-2.121-3.43-3.803-5.705-5.045c-2.28-1.239-4.79-1.86-7.539-1.86c-3.215,0-6.181,0.871-8.883,2.595
			c-2.707,1.734-4.902,4.268-6.585,7.614c-1.682,3.342-2.519,7.103-2.519,11.276c0,4.291,0.851,8.12,2.552,11.488
			c1.706,3.377,4.014,5.953,6.925,7.776c2.912,1.81,6.042,2.722,9.408,2.722c3.173,0,6.42-0.912,9.731-2.725
			c3.315-1.828,6.185-4.373,8.622-7.652l2.862,1.963c-1.482,2.195-3.078,4.057-4.792,5.585c-2.719,2.453-5.543,4.271-8.481,5.438
			c-2.936,1.169-6.152,1.752-9.658,1.752c-7.751,0-14.051-2.871-18.89-8.624c-4.009-4.771-6.009-10.445-6.009-17.023
			c0-4.843,1.109-9.227,3.331-13.154c2.213-3.922,5.273-7.033,9.172-9.353c3.898-2.31,8.107-3.467,12.612-3.467
			c2.407,0,4.644,0.324,6.705,0.986c2.068,0.651,4.362,1.863,6.483,3.32L135.734,120.182z"/>
		<path fill="#FFFFFF" d="M241.523,120.182H260.8v3.002h-1.278c-1.576,0-2.696,0.161-3.374,0.472
			c-0.512,0.235-0.914,0.649-1.172,1.222c-0.262,0.583-0.396,1.732-0.396,3.459v22.495c0,4.005,0.486,6.976,1.445,8.916
			c0.974,1.932,2.577,3.55,4.834,4.865c2.259,1.316,4.729,1.974,7.419,1.974c2.732,0,5.3-0.705,7.737-2.112
			c2.43-1.407,4.136-3.086,5.119-5.015c0.967-1.935,1.457-4.995,1.457-9.168v-21.626c0-1.593-0.156-2.729-0.464-3.42
			c-0.313-0.699-0.783-1.219-1.405-1.553c-0.646-0.335-1.621-0.509-2.957-0.509h-1.401v-3.002h16.707v3.002h-1.144
			c-1.881,0-3.183,0.366-3.883,1.088c-0.698,0.714-1.053,2.078-1.053,4.064v23.005c0,4.195-0.796,7.697-2.359,10.504
			c-1.574,2.8-3.861,5.018-6.867,6.652c-3.012,1.632-6.497,2.45-10.483,2.45c-3.762,0-7.216-0.831-10.342-2.505
			c-3.126-1.668-5.415-3.75-6.886-6.242c-1.465-2.49-2.198-5.626-2.198-9.391v-24.474c0-1.586-0.143-2.692-0.429-3.329
			c-0.285-0.636-0.706-1.098-1.25-1.386c-0.547-0.29-1.509-0.438-2.861-0.438h-1.793V120.182z"/>
		<path fill="#FFFFFF" d="M296.688,123.184v-3.002h17.824c8.156,0,13.847,0.512,17.065,1.537c4.748,1.505,8.593,4.305,11.558,8.408
			c3.259,4.532,4.902,9.744,4.902,15.633c0,4.005-0.812,7.737-2.422,11.178c-1.608,3.45-3.721,6.225-6.348,8.322
			c-2.174,1.764-4.785,3.009-7.842,3.742c-3.05,0.727-6.126,1.091-9.22,1.091h-25.519v-3.008h2.081l0.679,0.038
			c0.886,0,1.606-0.185,2.164-0.537c0.56-0.36,0.962-0.838,1.199-1.434c0.172-0.45,0.256-1.503,0.256-3.149v-33.382
			c0-1.893-0.126-3.119-0.364-3.671c-0.331-0.74-0.869-1.258-1.607-1.548C300.669,123.258,299.196,123.184,296.688,123.184z
			 M309.685,166.269h10.813c1.069,0,2.859-0.199,5.353-0.58c2.499-0.382,4.285-0.851,5.356-1.4c1.579-0.81,3.098-2.116,4.586-3.921
			c1.477-1.799,2.614-3.957,3.427-6.477c0.795-2.519,1.196-5.402,1.196-8.65c0-3.222-0.401-6.012-1.196-8.374
			c-0.813-2.363-2.006-4.487-3.63-6.376c-1.604-1.891-3.397-3.326-5.37-4.312c-1.973-0.992-4.172-1.616-6.599-1.879
			c-1.318-0.126-3.521-0.186-6.602-0.186h-7.334V166.269z"/>
		<path fill="#FFFFFF" d="M245.385,167.085c-1.309,0-2.359-0.34-3.128-1.021c-0.773-0.681-1.536-2.063-2.308-4.16l-15.526-41.723
			h-5.854l-15.576,41.321c-0.729,1.957-1.328,3.24-1.787,3.837c-0.45,0.615-0.983,1.058-1.593,1.327
			c-0.577,0.267-2.163,0.402-3.515,0.418c-2.104-0.016-3.355-0.088-3.765-0.212c-0.71-0.218-1.181-0.578-1.426-1.095
			c-0.238-0.509-0.362-1.712-0.362-3.596v-33.987c0-1.7,0.114-2.818,0.338-3.335c0.229-0.515,0.627-0.924,1.188-1.22
			c0.56-0.3,1.502-0.457,2.841-0.457h1.716v-3.002h-19.101v3.002h1.964c1.293,0,2.256,0.193,2.879,0.579
			c0.636,0.386,1.048,0.959,1.238,1.73c0.119,0.383,0.182,1.493,0.182,3.341v16.733h-25.873v-17.081
			c0-1.713,0.113-2.822,0.325-3.351c0.266-0.724,0.722-1.227,1.377-1.523c0.655-0.281,1.743-0.429,3.273-0.429h1.32v-3.002h-19.242
			l0.818,3.002h1.182c1.241,0,2.127,0.147,2.675,0.438c0.529,0.288,0.921,0.729,1.169,1.329c0.254,0.604,0.377,1.686,0.377,3.245
			v34.376c0,1.46-0.132,2.479-0.409,3.046c-0.271,0.578-0.644,0.964-1.106,1.161c-0.468,0.205-1.629,0.307-3.495,0.307h-1.21v3.008
			h19.242v-3.008c-2.45,0-3.94-0.078-4.472-0.212c-0.714-0.196-1.194-0.555-1.443-1.078c-0.249-0.521-0.381-1.729-0.381-3.612
			v-12.757h25.873v12.365c0,2.13-0.07,3.395-0.218,3.804c-0.164,0.52-0.542,0.896-1.125,1.132c-0.587,0.235-1.768,0.358-3.528,0.358
			h-1.393v3.008h18.128h0.973h14.92v-3.008c-0.405-0.027-0.932-0.038-1.571-0.038c-0.957,0-1.646-0.085-2.077-0.269
			c-0.428-0.179-0.764-0.445-1.023-0.803c-0.243-0.358-0.371-0.776-0.371-1.255c0-0.423,0.195-1.204,0.603-2.323l4.654-12.962h16.56
			l4.063,11.823c0.677,1.953,1.003,3.18,1.003,3.677c0,0.692-0.346,1.269-1.041,1.72c-0.354,0.235-1.1,0.352-2.249,0.352
			c-0.55,0-1.114,0.026-1.679,0.078v3.008h17.759v-3.008H245.385z M213.143,145.567l6.854-18.946l6.778,18.946H213.143z"/>
	</g>
	<g>
		<path fill="#FFFFFF" d="M98.101,192.271c0,0-1.324-1.591-1.324-3.703v-1.982c0-3.174,2.555-5.734,5.732-5.734
			s5.734,2.561,5.734,5.734v3.707l-2.299,0.259v-3.966c0-1.9-1.542-3.443-3.436-3.443c-1.896,0-3.44,1.543-3.44,3.443v1.982
			c0,1.276,0.795,2.207,0.795,2.207l7.012,8.327c0,0,1.368,1.636,1.368,3.8v2.859c0,3.172-2.557,5.738-5.734,5.738
			s-5.732-2.566-5.732-5.738v-4.362l2.292-0.265v4.627c0,1.895,1.544,3.44,3.44,3.44c1.894,0,3.436-1.546,3.436-3.44v-2.859
			c0-1.284-0.836-2.3-0.836-2.3L98.101,192.271z"/>
		<path fill="#FFFFFF" d="M123.33,180.852v24.91c0,3.172-2.562,5.738-5.734,5.738c-3.177,0-5.729-2.566-5.729-5.738v-24.91h2.291
			v24.91c0,1.895,1.542,3.44,3.438,3.44c1.897,0,3.441-1.546,3.441-3.44v-24.91H123.33z"/>
		<path fill="#FFFFFF" d="M127.659,211.5v-30.648h2.289V211.5H127.659z"/>
		<path fill="#FFFFFF" d="M143.579,183.149h-4.099V211.5h-2.336v-28.351h-4.15v-2.298h10.584V183.149z"/>
		<path fill="#FFFFFF" d="M149.16,180.852h2.292l4.308,13.005h0.091l4.287-13.005h2.291l-5.482,16.534V211.5h-2.293v-14.114
			L149.16,180.852z"/>
		<path fill="#FFFFFF" d="M164.186,186.586c0-3.174,2.559-5.734,5.732-5.734c3.177,0,5.733,2.561,5.733,5.734v19.176
			c0,3.172-2.556,5.738-5.733,5.738c-3.173,0-5.732-2.566-5.732-5.738V186.586z M166.479,205.762c0,1.895,1.542,3.44,3.438,3.44
			c1.898,0,3.438-1.546,3.438-3.44v-19.176c0-1.9-1.54-3.443-3.438-3.443c-1.896,0-3.438,1.543-3.438,3.443V205.762z"/>
		<path fill="#FFFFFF" d="M191.226,180.852v24.91c0,3.172-2.56,5.738-5.728,5.738c-3.179,0-5.738-2.566-5.738-5.738v-24.91h2.292
			v24.91c0,1.895,1.541,3.44,3.446,3.44c1.888,0,3.436-1.546,3.436-3.44v-24.91H191.226z"/>
		<path fill="#FFFFFF" d="M206.8,211.5h-2.291v-10.762c0-2.158-1.719-3.884-3.888-3.884h-2.775V211.5h-2.286v-30.648h5.062
			c3.4,0,6.179,2.777,6.179,6.175v3.659c0,2.068-1.057,3.922-2.604,5.026c1.548,1.143,2.604,2.947,2.604,5.026V211.5z
			 M200.621,194.566c2.169,0,3.888-1.72,3.888-3.881v-3.659c0-2.162-1.719-3.877-3.888-3.877h-2.775v11.417H200.621z"/>
		<path fill="#FFFFFF" d="M211.35,192.271c0,0-1.326-1.591-1.326-3.703v-1.982c0-3.174,2.566-5.734,5.736-5.734
			c3.173,0,5.732,2.561,5.732,5.734v3.707l-2.295,0.259v-3.966c0-1.9-1.543-3.443-3.438-3.443c-1.898,0-3.438,1.543-3.438,3.443
			v1.982c0,1.276,0.785,2.207,0.785,2.207l7.022,8.327c0,0,1.363,1.636,1.363,3.8v2.859c0,3.172-2.56,5.738-5.732,5.738
			c-3.17,0-5.736-2.566-5.736-5.738v-4.362l2.298-0.265v4.627c0,1.895,1.54,3.44,3.438,3.44c1.895,0,3.438-1.546,3.438-3.44v-2.859
			c0-1.284-0.838-2.3-0.838-2.3L211.35,192.271z"/>
		<path fill="#FFFFFF" d="M227.493,183.149v11.857h5.337v2.336h-5.337v11.864h7.585v2.293h-9.881v-30.648h9.524v2.298H227.493z"/>
		<path fill="#FFFFFF" d="M247.702,209.197v2.293h-9.49v-30.639h2.297v28.346H247.702z"/>
		<path fill="#FFFFFF" d="M252.994,183.149v11.857h5.332v2.336h-5.332V211.5H250.7v-30.648h9.525v2.298H252.994z"/>
	</g>
	<g>
		<path fill="#FFFFFF" d="M178.5,19.648c-19.28,0-34.975,15.687-34.975,34.968c0,19.284,15.695,34.976,34.975,34.976
			c19.285,0,34.974-15.691,34.974-34.976C213.474,35.335,197.785,19.648,178.5,19.648z M178.392,47.167
			c0.386,0,0.762,0.039,1.133,0.097l-1.092,1.075l-1.076-1.094C177.696,47.2,178.042,47.167,178.392,47.167z M187.383,41.655v8.381
			l-6.886,6.783c-0.563,0.561-1.308,0.871-2.105,0.871c-0.799,0-1.545-0.311-2.115-0.871c-1.155-1.166-1.155-3.056-0.004-4.212
			L187.383,41.655z M175.205,51.527c-0.804,0.805-1.217,1.839-1.288,2.892l-10.946-11.101c-0.563-0.559-0.874-1.309-0.874-2.102
			c0-0.802,0.311-1.55,0.874-2.11c0.562-0.564,1.312-0.874,2.11-0.874s1.546,0.31,2.101,0.864l10.171,10.313L175.205,51.527z
			 M168.063,50.654v17.182c0,1.644-1.337,2.978-2.982,2.978c-1.643,0-2.984-1.334-2.984-2.978V44.607L168.063,50.654z
			 M165.114,33.671c4.165,0,7.543,3.378,7.543,7.545c0,0.397-0.037,0.785-0.096,1.163l-4.293-4.352
			c-0.383-0.382-0.823-0.663-1.288-0.878c-0.051-0.025-0.104-0.06-0.16-0.085c-0.195-0.083-0.4-0.134-0.602-0.188
			c-0.084-0.023-0.164-0.056-0.25-0.073c-0.295-0.056-0.592-0.09-0.888-0.09c-0.3,0-0.597,0.034-0.888,0.09
			c-0.084,0.017-0.165,0.05-0.249,0.07c-0.202,0.055-0.404,0.107-0.597,0.19c-0.063,0.025-0.112,0.06-0.169,0.085
			c-0.463,0.215-0.902,0.496-1.283,0.878c-0.376,0.376-0.653,0.811-0.87,1.264c-0.028,0.063-0.068,0.121-0.099,0.188
			c-0.081,0.185-0.126,0.375-0.176,0.568c-0.028,0.095-0.063,0.182-0.082,0.283c-0.061,0.274-0.083,0.555-0.089,0.833
			c0,0.019-0.002,0.031-0.002,0.052v6.019c-1.831-1.375-3.008-3.557-3.008-6.019C157.568,37.049,160.94,33.671,165.114,33.671z
			 M165.114,75.378c-4.174,0-7.546-3.379-7.546-7.542c0-2.467,1.178-4.646,3.008-6.025v6.025c0,2.479,2.023,4.502,4.505,4.502
			s4.503-2.022,4.503-4.502v-6.069c1.861,1.373,3.073,3.576,3.073,6.069C172.657,71.999,169.279,75.378,165.114,75.378z
			 M178.392,62.257c-4.173,0-7.552-3.38-7.552-7.543c0-0.392,0.037-0.773,0.099-1.146l4.267,4.328v0.003
			c0.052,0.046,0.113,0.081,0.16,0.126c0.165,0.155,0.338,0.306,0.521,0.429c0.005,0,0.005,0,0.005,0.002
			c0.099,0.065,0.211,0.114,0.317,0.17c0.009,0.009,0.031,0.018,0.041,0.024c0.141,0.076,0.277,0.162,0.418,0.219l0.007,0.002
			c0.106,0.043,0.219,0.069,0.331,0.104c0.01,0.003,0.024,0.005,0.033,0.01c0.162,0.05,0.318,0.107,0.479,0.138
			c0.146,0.033,0.304,0.033,0.449,0.047c0.144,0.015,0.279,0.043,0.425,0.043c0.123,0,0.245-0.028,0.374-0.039
			c0.165-0.013,0.336-0.015,0.501-0.051c0.137-0.026,0.258-0.074,0.389-0.114c0.156-0.043,0.309-0.082,0.467-0.141
			c0.099-0.044,0.192-0.104,0.285-0.157c0.167-0.082,0.34-0.162,0.495-0.267c0.073-0.05,0.141-0.12,0.219-0.181
			c0.152-0.116,0.31-0.229,0.448-0.368l4.287-4.219c0.046,0.336,0.074,0.684,0.074,1.037
			C185.931,58.877,182.558,62.257,178.392,62.257z M191.891,75.57c-4.174,0-7.551-3.38-7.551-7.549c0-2.475,1.201-4.666,3.043-6.043
			v6.043c0,2.482,2.02,4.506,4.508,4.506c2.479,0,4.5-2.024,4.5-4.506v-6.043c1.843,1.377,3.047,3.568,3.047,6.043
			C199.438,72.189,196.055,75.57,191.891,75.57z M188.905,68.021v-6.62V41.4c0-1.641,1.338-2.978,2.985-2.978
			c1.646,0,2.982,1.337,2.982,2.978v20.001v6.62c0,1.643-1.337,2.984-2.982,2.984C190.243,71.005,188.905,69.664,188.905,68.021z
			 M196.391,47.446v-6.014V41.4c0-0.308-0.034-0.608-0.091-0.896c-0.005-0.043-0.024-0.081-0.033-0.123
			c-0.058-0.245-0.134-0.484-0.226-0.72c-0.021-0.053-0.06-0.096-0.081-0.151c-0.096-0.213-0.201-0.424-0.341-0.625
			c-0.003-0.012-0.013-0.018-0.023-0.031c-0.157-0.225-0.329-0.44-0.522-0.638c-0.181-0.184-0.381-0.332-0.583-0.476
			c-0.028-0.022-0.057-0.052-0.093-0.073c-0.188-0.132-0.397-0.234-0.607-0.332c-0.062-0.027-0.109-0.063-0.161-0.086
			c-0.236-0.096-0.479-0.165-0.724-0.221c-0.039-0.009-0.077-0.029-0.117-0.038c-0.296-0.061-0.601-0.092-0.897-0.092
			c-0.296,0-0.598,0.031-0.889,0.092c-0.095,0.018-0.171,0.052-0.259,0.076c-0.198,0.051-0.389,0.101-0.583,0.177
			c-0.117,0.052-0.218,0.119-0.331,0.176c-0.152,0.078-0.303,0.147-0.446,0.243c-0.14,0.094-0.26,0.21-0.395,0.32
			c-0.094,0.081-0.193,0.143-0.286,0.233l-4.281,4.222c-0.045-0.34-0.081-0.684-0.081-1.038c0-4.163,3.377-7.544,7.551-7.544
			c4.164,0,7.547,3.381,7.547,7.544C199.438,43.879,198.233,46.071,196.391,47.446z"/>
		<path fill="#FFFFFF" d="M178.5,11.5c-23.815,0-43.124,19.303-43.124,43.116c0,23.819,19.308,43.12,43.124,43.12
			c23.816,0,43.118-19.301,43.118-43.12C221.618,30.803,202.316,11.5,178.5,11.5z M178.5,92.348
			c-20.84,0-37.728-16.892-37.728-37.732c0-20.836,16.888-37.725,37.728-37.725c20.833,0,37.729,16.889,37.729,37.725
			C216.229,75.456,199.333,92.348,178.5,92.348z"/>
	</g>
</g>
</svg>
